<svg width="537" height="72" viewBox="0 0 537 72" fill="none" xmlns="http://www.w3.org/2000/svg">
<g clip-path="url(#clip0)">
<g filter="url(#filter0_d)">
<path d="M110.5 27C100.289 27 92 35.5135 92 46C92 56.4865 100.289 65 110.5 65C120.692 65 128.967 56.5169 128.997 46.0562C128.999 46.0376 129 46.0188 129 46C129 45.9831 128.999 45.9663 128.998 45.9495C128.971 35.4862 120.694 27 110.5 27ZM109.496 28.1712C108.821 28.3346 108.157 28.5569 107.578 28.9676C107.016 29.2279 106.739 28.9144 106.753 28.5599C107.656 28.3557 108.573 28.2257 109.496 28.1712V28.1712ZM114.617 28.9684C115.21 28.9581 115.448 30.0886 116.445 30.1646C117.45 31.025 117.216 28.979 116.215 29.4145C116.107 29.271 115.99 29.1352 115.864 29.0083C119.225 30.1288 122.175 32.2741 124.32 35.1586C123.709 34.9317 123.071 35.1772 122.479 34.1698C121.507 32.8132 122.236 35.805 121.315 34.2876C120.476 33.8313 122.195 33.8218 120.95 33.4034C120.164 32.8189 119.587 32.6384 120.401 33.6618C119.646 34.0026 119.81 32.5035 119.305 32.3964C119.274 32.3901 119.242 32.3888 119.21 32.3926C119.108 32.4036 118.984 32.4617 118.829 32.5837C118.112 32.8098 118.476 34.5669 117.32 34.4788C118.473 34.7554 120.399 33.3186 121.197 34.6308C121.477 35.2897 123.267 36.3294 123.41 36.0527C123.072 35.102 124.594 36.1709 125.054 36.2241C126.909 39.1283 127.895 42.5269 127.89 46C127.89 51.0038 125.888 55.5217 122.664 58.7627C122.557 58.7779 122.449 58.7809 122.339 58.7604C123.402 56.9577 122.879 54.7579 123.723 52.8962C124.629 51.5594 124.294 49.6966 123.461 48.4491C123.695 47.3053 123.87 46.1125 122.479 46.1759C121.709 44.4694 120.316 47.0245 119.001 46.3222C117.493 46.928 116.2 45.3282 115.477 44.2239C114.239 43.7831 114.051 42.075 114.6 41.0007C114.555 40.4231 113.939 39.6236 114.566 39.4568C113.497 39.4378 114.993 37.9178 115.055 37.2794L115.462 36.8933C116.414 36.4495 116.12 35.1461 116.823 34.4746C115.805 34.2151 115.648 33.2183 115.322 32.2812C116.004 31.9446 118.022 32.5385 116.453 31.4768C115.983 31.3339 115.441 30.9896 116.13 30.77C115.017 31.2283 115.277 29.2842 114.796 30.4014C113.444 30.5032 114.665 29.5076 114.136 29.1842C114.325 29.0334 114.48 28.9707 114.617 28.9684V28.9684ZM104.411 29.2659C104.46 29.5164 104.27 30.0575 104.493 30.2532C103.953 30.8011 104.609 32.0563 103.096 31.5357C102.457 31.2891 104.396 30.3976 102.863 30.9752C102.046 31.2347 101.991 31.5957 102.586 31.7724C101.247 32.6453 100.429 32.3553 99.2772 33.4429C98.0972 34.7691 96.3061 35.7396 95.8728 37.6028C96.581 37.3926 95.9283 38.9575 96.4604 39.2368C96.564 39.4883 95.7337 39.9686 96.7386 40.1203C96.6938 40.7777 98.3425 40.3589 97.5182 40.9122C96.9129 40.7081 95.0762 41.3085 95.8458 40.2392C94.9226 40.4748 95.2849 39.2318 94.486 39.4055C94.6973 37.8851 96.5458 40.2054 96.0685 39.2588C95.6789 39.2493 96.2372 37.7825 95.5698 38.7629C96.2728 37.1361 95.4506 38.5835 95.2923 38.2833C95.4839 37.6845 95.5953 37.1897 95.4884 36.983C97.496 33.4623 100.641 30.7118 104.411 29.2659V29.2659ZM113.841 36.6968C114.145 36.8393 114.435 36.7785 114.694 36.7181L114.7 37.1806C113.996 37.249 112.966 36.8029 113.842 36.6968H113.841ZM94.2829 39.5476C94.3125 39.6833 94.2415 39.9557 94.001 40.3532C94.0886 40.0824 94.1826 39.8138 94.2829 39.5476V39.5476ZM98.1931 40.6777C98.4439 40.748 98.6704 42.9304 97.9141 43.2404C98.4965 42.4994 97.7798 40.9354 98.1427 40.6933C98.1594 40.6781 98.1764 40.6732 98.1931 40.6781V40.6777ZM93.8752 40.7431C93.7453 41.4966 94.1826 42.2707 93.7697 43.3164C94.1549 44.7547 95.1646 42.5374 95.8495 42.83C95.9557 42.5184 96.7034 42.7187 96.4459 43.4187C97.2414 43.6444 97.0594 43.1739 97.3521 43.2477C98.1579 43.6782 98.4872 42.781 98.2315 44.1407C98.6977 45.6599 100.979 45.1454 101.146 46.8512C101.405 48.3146 102.76 48.1964 103.579 48.9708C104.899 49.3603 106.734 49.7498 107.358 51.0973C107.635 52.7431 105.412 53.4051 105.93 55.1417C106.133 57.0341 104.579 57.0857 103.386 57.6573C103.65 58.6916 102.448 60.133 102.07 60.155C102.173 60.5293 101.537 60.8998 101.582 61.3357C100.515 60.6798 99.5199 59.9085 98.613 59.0351C97.816 57.6998 97.3062 56.1688 96.7767 54.7134C95.8898 53.4719 94.7802 52.3376 94.3921 50.7827C93.7494 49.4071 93.4682 47.6678 94.1064 46.2538C94.2714 45.6607 94.3436 43.8306 93.8282 44.6787C93.5055 44.4409 93.4053 43.7451 93.3427 43.0915C93.4681 42.2971 93.6461 41.5125 93.8755 40.7431H93.8752Z" fill="#5A352C"/>
</g>
</g>
<g filter="url(#filter1_d)">
<path d="M26.96 63.704C22.352 63.704 18.3627 62.68 14.992 60.632C11.664 58.584 9.12533 55.768 7.376 52.184C5.62667 48.5573 4.752 44.4613 4.752 39.896C4.752 34.648 5.776 30.1467 7.824 26.392C9.91467 22.6373 12.7947 19.8 16.464 17.88C20.1333 15.9173 24.3147 14.936 29.008 14.936C33.3173 14.936 38.288 15.5973 43.92 16.92L43.344 27.992H38.8L37.264 20.312C36.6667 19.8427 35.6427 19.3947 34.192 18.968C32.784 18.5413 30.8853 18.328 28.496 18.328C25.3813 18.328 22.6293 19.096 20.24 20.632C17.8507 22.168 15.9733 24.4507 14.608 27.48C13.2853 30.5093 12.624 34.1787 12.624 38.488C12.624 42.456 13.1573 46.0827 14.224 49.368C15.3333 52.6533 16.9973 55.2987 19.216 57.304C21.4773 59.2667 24.2293 60.248 27.472 60.248C29.52 60.248 31.4613 60.0133 33.296 59.544C35.1307 59.032 36.5387 58.3707 37.52 57.56V43.288L29.456 42.648V38.872H48.144V42.648L44.432 43.224V60.44C43.4933 60.4827 41.936 60.8453 39.76 61.528C37.5413 62.2107 35.4507 62.744 33.488 63.128C31.5253 63.512 29.3493 63.704 26.96 63.704ZM52.255 45.144C52.255 41.304 53.0443 37.976 54.623 35.16C56.2017 32.344 58.271 30.2107 60.831 28.76C63.4337 27.2667 66.207 26.52 69.151 26.52C74.527 26.52 78.559 28.2267 81.247 31.64C83.9777 35.0533 85.343 39.5333 85.343 45.08C85.343 48.9627 84.5537 52.312 82.975 55.128C81.3963 57.944 79.3057 60.0773 76.703 61.528C74.143 62.9787 71.391 63.704 68.447 63.704C63.071 63.704 59.0177 61.9973 56.287 58.584C53.599 55.1707 52.255 50.6907 52.255 45.144ZM68.831 60.056C71.775 60.056 74.0363 58.84 75.615 56.408C77.1937 53.976 77.983 50.3707 77.983 45.592C77.983 40.856 77.2577 37.1013 75.807 34.328C74.3563 31.5547 72.031 30.168 68.831 30.168C65.887 30.168 63.6043 31.384 61.983 33.816C60.4043 36.248 59.615 39.8533 59.615 44.632C59.615 49.368 60.3617 53.1227 61.855 55.896C63.3483 58.6693 65.6737 60.056 68.831 60.056ZM150.579 63.704C148.019 63.704 145.672 63.064 143.539 61.784C141.406 60.504 139.699 58.5413 138.419 55.896C137.182 53.2507 136.563 49.9867 136.563 46.104C136.563 42.4773 137.31 39.1707 138.803 36.184C140.296 33.1973 142.43 30.8507 145.203 29.144C148.019 27.3947 151.326 26.52 155.123 26.52C157.299 26.52 159.283 26.7547 161.075 27.224V15.256L154.547 14.488V11.736L166.067 10.584H166.259L167.667 11.608V59.736H171.379V62.68C170.014 62.9787 168.819 63.2133 167.795 63.384C166.814 63.5547 165.768 63.64 164.659 63.64C163.55 63.64 162.76 63.448 162.291 63.064C161.822 62.68 161.587 61.8693 161.587 60.632V58.584C160.392 60.0347 158.814 61.2507 156.851 62.232C154.931 63.2133 152.84 63.704 150.579 63.704ZM153.139 59.16C154.803 59.16 156.36 58.7973 157.811 58.072C159.262 57.304 160.35 56.4293 161.075 55.448V32.024C160.734 31.512 159.923 31.064 158.643 30.68C157.406 30.2533 156.083 30.04 154.675 30.04C151.347 30.04 148.68 31.32 146.675 33.88C144.712 36.3973 143.731 40.3013 143.731 45.592C143.731 50.2 144.606 53.6133 146.355 55.832C148.104 58.0507 150.366 59.16 153.139 59.16ZM197.133 19.416L192.013 18.648V15.448H203.917L225.229 46.68L228.812 53.464V19.416L223.245 18.648V15.448H238.349V18.648L233.229 19.416V63H228.173L206.413 31.064L201.485 22.616V59.224L207.565 59.864V63H192.013V59.864L197.133 59.16V19.416ZM258.562 63.704C253.399 63.704 249.452 62.0187 246.722 58.648C244.034 55.2773 242.69 50.776 242.69 45.144C242.69 41.432 243.394 38.168 244.802 35.352C246.21 32.536 248.172 30.36 250.69 28.824C253.25 27.288 256.151 26.52 259.394 26.52C263.362 26.52 266.434 27.6293 268.61 29.848C270.828 32.024 272.002 35.16 272.13 39.256C272.13 41.8587 271.98 43.8427 271.682 45.208H249.666C249.751 49.432 250.732 52.8453 252.61 55.448C254.487 58.008 257.154 59.288 260.61 59.288C262.316 59.288 264.087 58.9893 265.922 58.392C267.799 57.752 269.25 57.0053 270.274 56.152L271.49 58.968C270.252 60.248 268.418 61.3573 265.986 62.296C263.554 63.2347 261.079 63.704 258.562 63.704ZM265.09 41.816C265.218 40.92 265.282 40.0027 265.282 39.064C265.239 36.2907 264.642 34.1147 263.49 32.536C262.38 30.9147 260.61 30.104 258.178 30.104C255.703 30.104 253.719 31 252.226 32.792C250.775 34.584 249.943 37.592 249.73 41.816H265.09ZM277.63 53.4C277.63 49.3893 279.635 46.4453 283.646 44.568C287.657 42.648 292.734 41.624 298.878 41.496V39.704C298.878 37.6987 298.665 36.12 298.238 34.968C297.811 33.816 297.065 32.984 295.998 32.472C294.974 31.9173 293.502 31.64 291.582 31.64C289.406 31.64 287.443 31.96 285.694 32.6C283.987 33.1973 282.281 33.944 280.574 34.84L278.974 31.512C279.529 31.0427 280.553 30.424 282.046 29.656C283.539 28.888 285.267 28.2053 287.23 27.608C289.193 27.0107 291.155 26.712 293.118 26.712C296.147 26.712 298.537 27.1387 300.286 27.992C302.078 28.8027 303.358 30.1253 304.126 31.96C304.894 33.7947 305.278 36.248 305.278 39.32V59.864H309.054V62.68C308.201 62.8933 307.113 63.1067 305.79 63.32C304.51 63.5333 303.379 63.64 302.398 63.64C301.203 63.64 300.393 63.448 299.966 63.064C299.539 62.7227 299.326 61.9333 299.326 60.696V58.584C298.046 59.864 296.467 61.0373 294.59 62.104C292.755 63.1707 290.665 63.704 288.318 63.704C285.246 63.704 282.686 62.8293 280.638 61.08C278.633 59.288 277.63 56.728 277.63 53.4ZM291.07 59.352C292.179 59.352 293.459 59.0107 294.91 58.328C296.361 57.6453 297.683 56.8347 298.878 55.896V44.888C294.227 44.888 290.707 45.6133 288.318 47.064C285.971 48.472 284.798 50.328 284.798 52.632C284.798 54.936 285.353 56.6427 286.462 57.752C287.614 58.8187 289.15 59.352 291.07 59.352ZM313.633 59.864L318.433 59.48V32.408L313.825 31.256V27.8L322.657 26.648H322.785L324.193 27.8V28.952L324.001 33.944H324.193C324.62 33.2187 325.388 32.28 326.497 31.128C327.606 29.976 329.036 28.9307 330.785 27.992C332.534 27.0107 334.433 26.52 336.481 26.52C337.334 26.52 338.038 26.6267 338.593 26.84V34.008C338.294 33.7947 337.804 33.6027 337.121 33.432C336.481 33.2187 335.756 33.112 334.945 33.112C331.404 33.112 328.118 34.2 325.089 36.376V59.416L333.217 59.928V63H313.633V59.864ZM372.597 44.504L358.197 19.48L354.357 18.648V15.448H371.061V18.648L366.005 19.416L375.029 36.568L377.077 41.432L379.381 36.568L387.893 19.416L382.645 18.648V15.448H397.237V18.648L393.077 19.416L379.701 44.44V59.16L386.869 59.864V63H365.621V59.864L372.597 59.224V44.504ZM399.193 45.144C399.193 41.304 399.982 37.976 401.561 35.16C403.139 32.344 405.209 30.2107 407.769 28.76C410.371 27.2667 413.145 26.52 416.089 26.52C421.465 26.52 425.497 28.2267 428.185 31.64C430.915 35.0533 432.281 39.5333 432.281 45.08C432.281 48.9627 431.491 52.312 429.913 55.128C428.334 57.944 426.243 60.0773 423.641 61.528C421.081 62.9787 418.329 63.704 415.385 63.704C410.009 63.704 405.955 61.9973 403.225 58.584C400.537 55.1707 399.193 50.6907 399.193 45.144ZM415.769 60.056C418.713 60.056 420.974 58.84 422.553 56.408C424.131 53.976 424.921 50.3707 424.921 45.592C424.921 40.856 424.195 37.1013 422.745 34.328C421.294 31.5547 418.969 30.168 415.769 30.168C412.825 30.168 410.542 31.384 408.921 33.816C407.342 36.248 406.553 39.8533 406.553 44.632C406.553 49.368 407.299 53.1227 408.793 55.896C410.286 58.6693 412.611 60.056 415.769 60.056ZM467.25 63.576C466.055 63.576 465.159 63.3413 464.562 62.872C464.007 62.4027 463.73 61.6347 463.73 60.568V58.392C462.322 59.8 460.551 61.0373 458.418 62.104C456.327 63.1707 454.215 63.704 452.082 63.704C448.114 63.704 445.298 62.6373 443.634 60.504C441.97 58.3707 441.138 54.8507 441.138 49.944V31.384L437.554 30.36V27.544L446.514 26.712H446.578L447.794 27.48V49.432C447.794 51.9067 447.965 53.848 448.306 55.256C448.69 56.6213 449.33 57.6453 450.226 58.328C451.165 58.968 452.509 59.288 454.258 59.288C455.965 59.288 457.565 58.9253 459.058 58.2C460.551 57.4747 461.853 56.6213 462.962 55.64V31.384L458.354 30.36V27.544L468.082 26.712H468.146L469.618 27.48V59.736H473.458L473.394 62.616C472.199 62.9147 471.154 63.1493 470.258 63.32C469.405 63.4907 468.402 63.576 467.25 63.576Z" fill="#5A352C"/>
</g>
<defs>
<filter id="filter0_d" x="88" y="27" width="45" height="46" filterUnits="userSpaceOnUse" color-interpolation-filters="sRGB">
<feFlood flood-opacity="0" result="BackgroundImageFix"/>
<feColorMatrix in="SourceAlpha" type="matrix" values="0 0 0 0 0 0 0 0 0 0 0 0 0 0 0 0 0 0 127 0" result="hardAlpha"/>
<feOffset dy="4"/>
<feGaussianBlur stdDeviation="2"/>
<feComposite in2="hardAlpha" operator="out"/>
<feColorMatrix type="matrix" values="0 0 0 0 0 0 0 0 0 0 0 0 0 0 0 0 0 0 0.25 0"/>
<feBlend mode="normal" in2="BackgroundImageFix" result="effect1_dropShadow"/>
<feBlend mode="normal" in="SourceGraphic" in2="effect1_dropShadow" result="shape"/>
</filter>
<filter id="filter1_d" x="0.751999" y="10.584" width="476.706" height="61.12" filterUnits="userSpaceOnUse" color-interpolation-filters="sRGB">
<feFlood flood-opacity="0" result="BackgroundImageFix"/>
<feColorMatrix in="SourceAlpha" type="matrix" values="0 0 0 0 0 0 0 0 0 0 0 0 0 0 0 0 0 0 127 0" result="hardAlpha"/>
<feOffset dy="4"/>
<feGaussianBlur stdDeviation="2"/>
<feComposite in2="hardAlpha" operator="out"/>
<feColorMatrix type="matrix" values="0 0 0 0 0 0 0 0 0 0 0 0 0 0 0 0 0 0 0.25 0"/>
<feBlend mode="normal" in2="BackgroundImageFix" result="effect1_dropShadow"/>
<feBlend mode="normal" in="SourceGraphic" in2="effect1_dropShadow" result="shape"/>
</filter>
<clipPath id="clip0">
<rect width="37" height="38" fill="white" transform="translate(92 27)"/>
</clipPath>
</defs>
</svg>
